<svg xmlns="http://www.w3.org/2000/svg" viewBox="0 0 372.22 67.56"><defs><style>.cls-1,.cls-2{fill:#fff;}.cls-2{fill-rule:evenodd;}</style></defs><g id="Layer_1" data-name="Layer 1"><path class="cls-1" d="M367.4,41.72c0-3.62-2-5.91-8.53-6.4-6.66-.5-12-3.08-12-10.18,0-5.66,4.82-10.08,12-10.08,4.61,0,9,1.1,12.65,4.32l-2.88,3.53a14.61,14.61,0,0,0-9.77-3.48c-4,0-7.25,2.09-7.25,5.76,0,3.38,3,5.26,7.25,5.51,9.28.5,13.35,4.22,13.35,11,0,6.5-6,10.92-13.35,10.92A18.25,18.25,0,0,1,345,46.83l3.17-3.47a14.53,14.53,0,0,0,10.73,4.91c4.51,0,8.53-2.48,8.53-6.55"></path><path class="cls-1" d="M272.15,35.42c-1.54,0-2.43.94-3.28,2.13V47.63h18.67V52H264.21V15.76h23.33v4.37H268.87V31.94a6.08,6.08,0,0,1,3.28-.89h14v4.37Z"></path><path class="cls-1" d="M239.14,35.27a7.38,7.38,0,0,0,7.35-7.55,7.42,7.42,0,0,0-7.35-7.59H229v16a5.94,5.94,0,0,1,3.27-.89Zm-6.9,4.37A3.86,3.86,0,0,0,229,41.72V52h-4.62V15.76h14.79a11.94,11.94,0,1,1,0,23.88Z"></path><path class="cls-1" d="M206.38,41.72c0-3.62-2-5.91-8.54-6.4s-12-3.08-12-10.18c0-5.66,4.82-10.08,12-10.08,4.62,0,9,1.1,12.66,4.32l-2.88,3.53a14.62,14.62,0,0,0-9.78-3.48c-4,0-7.24,2.09-7.24,5.76,0,3.38,3,5.26,7.24,5.51,9.29.5,13.36,4.22,13.36,11,0,6.5-6,10.92-13.36,10.92A18.25,18.25,0,0,1,184,46.83l3.17-3.47a14.53,14.53,0,0,0,10.72,4.91c4.52,0,8.54-2.48,8.54-6.55"></path><path class="cls-1" d="M172.88,15.76h1.39L157.19,52H155.8l3.63-7.79c-2.09-.49-3.28-2.18-4.77-5.21L143.29,15.76h1.39L156.6,39.88c.84,1.69,2,3,3.42,3.08Z"></path><path class="cls-1" d="M119.87,30.6,135.6,52h-1.69l-15-20.46L115.45,35a9.08,9.08,0,0,1-6.6,3.13V52h-1.24V15.76h1.24V36.9c3,0,4.51-1.78,5.76-2.87l18.56-18.27H135Z"></path><path class="cls-1" d="M71.37,24.05c0-5.41,4.82-9.09,10.42-9.09a16.1,16.1,0,0,1,11.27,3.73l-.74,1a15.33,15.33,0,0,0-10.53-3.62c-5.06,0-9.13,3.37-9.13,7.94,0,5.9,5.11,7.54,10.13,8,5.61.5,11.66,2.93,11.66,10.32,0,6.46-5.61,10.23-12.46,10.23-5,0-8.73-2.28-11.91-5.31l-.15-.15.94-1,.2.2c2.53,2.48,6.16,5.11,10.92,5.11,6.31,0,11.17-3.67,11.17-9.09,0-6.6-5.11-8.33-10.42-9s-11.37-2.23-11.37-9.33"></path><path class="cls-1" d="M318,52.69a18.85,18.85,0,1,1,15.87-29l-3.73,2.39a14.41,14.41,0,1,0-.28,16l3.65,2.52A18.86,18.86,0,0,1,318,52.69"></path><path class="cls-2" d="M57.31,8.76C26.09,12.63-2.26,35.12,29.38,42.41c-20.09-6.7-7.2-19.86,23.24-25.6Z"></path><path class="cls-2" d="M62.41,0C48.33,2.07,21.05,12.18,15.8,25.65a24.71,24.71,0,0,1,3.05-3.25C24.09,17.69,32,13.74,40.17,11.05A85.75,85.75,0,0,1,58.24,7.17Z"></path><path class="cls-2" d="M5.34,58.88C36.65,55.49,65.6,33.46,34.16,25.67c19.91,7,6.67,20-23.91,25.24Z"></path><path class="cls-2" d="M0,67.56C14.14,65.7,41.68,56,47.29,42.65a25,25,0,0,1-3.14,3.2c-5.36,4.62-13.35,8.45-21.61,11a87.18,87.18,0,0,1-18.17,3.6Z"></path></g></svg>